<svg xmlns="http://www.w3.org/2000/svg" version="1.1" xmlns:xlink="http://www.w3.org/1999/xlink" xmlns:svgjs="http://svgjs.dev/svgjs" viewBox="0 0 800 800"><defs><linearGradient x1="50%" y1="0%" x2="50%" y2="100%" id="cccoil-grad"><stop stop-color="#0060fa" stop-opacity="1" offset="0%"></stop><stop stop-color="#008fff" stop-opacity="1" offset="100%"></stop></linearGradient></defs><g stroke="url(#cccoil-grad)" fill="none" stroke-linecap="round"><circle r="385" cx="400" cy="400" stroke-width="3.5" stroke-dasharray="2419 2419" transform="rotate(360, 400, 400)" opacity="0.99"></circle><circle r="367.5" cx="400" cy="400" stroke-width="3.5" stroke-dasharray="2199 2309" transform="rotate(343, 400, 400)" opacity="0.47"></circle><circle r="350" cx="400" cy="400" stroke-width="3.5" stroke-dasharray="1990 2199" transform="rotate(326, 400, 400)" opacity="0.45"></circle><circle r="332.5" cx="400" cy="400" stroke-width="3.5" stroke-dasharray="1791 2089" transform="rotate(309, 400, 400)" opacity="0.41"></circle><circle r="315" cx="400" cy="400" stroke-width="3.5" stroke-dasharray="1602 1979" transform="rotate(291, 400, 400)" opacity="0.22"></circle><circle r="297.5" cx="400" cy="400" stroke-width="3.5" stroke-dasharray="1424 1869" transform="rotate(274, 400, 400)" opacity="0.73"></circle><circle r="280" cx="400" cy="400" stroke-width="3.5" stroke-dasharray="1257 1759" transform="rotate(257, 400, 400)" opacity="0.92"></circle><circle r="262.5" cx="400" cy="400" stroke-width="3.5" stroke-dasharray="1100 1649" transform="rotate(240, 400, 400)" opacity="0.19"></circle><circle r="245" cx="400" cy="400" stroke-width="3.5" stroke-dasharray="953 1539" transform="rotate(223, 400, 400)" opacity="0.36"></circle><circle r="227.5" cx="400" cy="400" stroke-width="3.5" stroke-dasharray="817 1429" transform="rotate(206, 400, 400)" opacity="0.16"></circle><circle r="210" cx="400" cy="400" stroke-width="3.5" stroke-dasharray="691 1319" transform="rotate(189, 400, 400)" opacity="0.58"></circle><circle r="192.5" cx="400" cy="400" stroke-width="3.5" stroke-dasharray="576 1210" transform="rotate(171, 400, 400)" opacity="0.47"></circle><circle r="175" cx="400" cy="400" stroke-width="3.5" stroke-dasharray="471 1100" transform="rotate(154, 400, 400)" opacity="0.49"></circle><circle r="157.5" cx="400" cy="400" stroke-width="3.5" stroke-dasharray="377 990" transform="rotate(137, 400, 400)" opacity="0.18"></circle><circle r="140" cx="400" cy="400" stroke-width="3.5" stroke-dasharray="293 880" transform="rotate(120, 400, 400)" opacity="0.57"></circle><circle r="122.5" cx="400" cy="400" stroke-width="3.5" stroke-dasharray="220 770" transform="rotate(103, 400, 400)" opacity="0.48"></circle><circle r="105" cx="400" cy="400" stroke-width="3.5" stroke-dasharray="157 660" transform="rotate(86, 400, 400)" opacity="0.07"></circle><circle r="87.5" cx="400" cy="400" stroke-width="3.5" stroke-dasharray="105 550" transform="rotate(69, 400, 400)" opacity="0.20"></circle><circle r="70" cx="400" cy="400" stroke-width="3.5" stroke-dasharray="63 440" transform="rotate(51, 400, 400)" opacity="0.36"></circle><circle r="52.5" cx="400" cy="400" stroke-width="3.5" stroke-dasharray="31 330" transform="rotate(34, 400, 400)" opacity="0.71"></circle><circle r="35" cx="400" cy="400" stroke-width="3.5" stroke-dasharray="10 220" transform="rotate(17, 400, 400)" opacity="0.32"></circle><circle r="17.5" cx="400" cy="400" stroke-width="3.5" stroke-dasharray="0 110" opacity="0.29"></circle></g></svg>