<svg xmlns="http://www.w3.org/2000/svg" version="1.1" xmlns:xlink="http://www.w3.org/1999/xlink" xmlns:svgjs="http://svgjs.dev/svgjs" viewBox="0 0 1422 800"><g fill="#9968e2" transform="matrix(3.7,0,0,3.7,-1909.5750000000003,-1077.3000000000002)"><circle r="0.5" cx="716" cy="400" opacity="0.18"></circle><circle r="0.5" cx="714" cy="405" opacity="0.50"></circle><circle r="0.5" cx="707" cy="406" opacity="0.83"></circle><circle r="0.5" cx="703" cy="399" opacity="0.19"></circle><circle r="0.5" cx="707" cy="391" opacity="0.38"></circle><circle r="1" cx="718" cy="392" opacity="0.33"></circle><circle r="1" cx="722" cy="402" opacity="0.25"></circle><circle r="1" cx="715" cy="412" opacity="0.85"></circle><circle r="1" cx="701" cy="410" opacity="0.56"></circle><circle r="1" cx="697" cy="396" opacity="0.66"></circle><circle r="1" cx="708" cy="385" opacity="0.63"></circle><circle r="1" cx="724" cy="389" opacity="0.45"></circle><circle r="1" cx="728" cy="407" opacity="0.83"></circle><circle r="1" cx="713" cy="419" opacity="0.89"></circle><circle r="1" cx="694" cy="411" opacity="0.42"></circle><circle r="1.5" cx="692" cy="390" opacity="0.62"></circle><circle r="1.5" cx="711" cy="378" opacity="0.39"></circle><circle r="1.5" cx="732" cy="389" opacity="0.88"></circle><circle r="1.5" cx="731" cy="414" opacity="0.49"></circle><circle r="1.5" cx="708" cy="425" opacity="0.86"></circle><circle r="1.5" cx="686" cy="410" opacity="0.44"></circle><circle r="1.5" cx="690" cy="382" opacity="0.98"></circle><circle r="1.5" cx="717" cy="372" opacity="0.42"></circle><circle r="1.5" cx="740" cy="391" opacity="0.70"></circle><circle r="1.5" cx="733" cy="422" opacity="0.87"></circle><circle r="2" cx="702" cy="431" opacity="0.83"></circle><circle r="2" cx="679" cy="406" opacity="0.31"></circle><circle r="2" cx="689" cy="374" opacity="0.44"></circle><circle r="2" cx="725" cy="367" opacity="0.83"></circle><circle r="2" cx="747" cy="397" opacity="0.29"></circle><circle r="2" cx="732" cy="431" opacity="0.67"></circle><circle r="2" cx="693" cy="434" opacity="0.15"></circle><circle r="2" cx="671" cy="400" opacity="0.17"></circle><circle r="2" cx="692" cy="364" opacity="0.98"></circle><circle r="2.5" cx="734" cy="365" opacity="0.88"></circle><circle r="2.5" cx="754" cy="404" opacity="0.41"></circle><circle r="2.5" cx="728" cy="441" opacity="0.73"></circle><circle r="2.5" cx="682" cy="435" opacity="0.81"></circle><circle r="2.5" cx="666" cy="391" opacity="0.71"></circle><circle r="2.5" cx="697" cy="355" opacity="0.28"></circle><circle r="2.5" cx="745" cy="366" opacity="0.44"></circle><circle r="2.5" cx="758" cy="414" opacity="0.23"></circle><circle r="2.5" cx="721" cy="449" opacity="0.79"></circle><circle r="2.5" cx="671" cy="433" opacity="0.82"></circle><circle r="3" cx="663" cy="380" opacity="0.57"></circle><circle r="3" cx="706" cy="347" opacity="0.29"></circle><circle r="3" cx="757" cy="370" opacity="0.23"></circle><circle r="3" cx="760" cy="426" opacity="0.53"></circle><circle r="3" cx="711" cy="457" opacity="0.47"></circle><circle r="3" cx="660" cy="427" opacity="0.45"></circle><circle r="3" cx="662" cy="367" opacity="0.32"></circle><circle r="3" cx="717" cy="340" opacity="0.55"></circle><circle r="3" cx="768" cy="377" opacity="0.76"></circle><circle r="3.5" cx="759" cy="440" opacity="0.59"></circle><circle r="3.5" cx="698" cy="462" opacity="0.14"></circle><circle r="3.5" cx="649" cy="418" opacity="0.77"></circle><circle r="3.5" cx="665" cy="353" opacity="0.91"></circle><circle r="3.5" cx="731" cy="336" opacity="0.12"></circle><circle r="3.5" cx="777" cy="387" opacity="0.11"></circle><circle r="3.5" cx="754" cy="453" opacity="0.33"></circle><circle r="3.5" cx="684" cy="464" opacity="0.81"></circle><circle r="3.5" cx="640" cy="407" opacity="0.37"></circle><circle r="3.5" cx="671" cy="340" opacity="0.37"></circle><circle r="4" cx="746" cy="336" opacity="0.26"></circle><circle r="4" cx="785" cy="400" opacity="0.28"></circle><circle r="4" cx="746" cy="466" opacity="0.92"></circle><circle r="4" cx="668" cy="463" opacity="0.92"></circle><circle r="4" cx="634" cy="392" opacity="0.32"></circle><circle r="4" cx="681" cy="327" opacity="0.90"></circle><circle r="4" cx="762" cy="339" opacity="0.60"></circle><circle r="4" cx="790" cy="416" opacity="0.29"></circle><circle r="4" cx="734" cy="478" opacity="0.72"></circle><circle r="4" cx="652" cy="458" opacity="0.53"></circle><circle r="4.5" cx="631" cy="375" opacity="0.17"></circle><circle r="4.5" cx="695" cy="317" opacity="0.41"></circle><circle r="4.5" cx="778" cy="346" opacity="0.97"></circle><circle r="4.5" cx="791" cy="434" opacity="0.25"></circle><circle r="4.5" cx="719" cy="488" opacity="0.38"></circle><circle r="4.5" cx="637" cy="449" opacity="0.98"></circle><circle r="4.5" cx="632" cy="357" opacity="0.50"></circle><circle r="4.5" cx="712" cy="309" opacity="0.75"></circle><circle r="4.5" cx="793" cy="357" opacity="0.71"></circle><circle r="5" cx="788" cy="452" opacity="0.29"></circle><circle r="5" cx="701" cy="494" opacity="0.96"></circle><circle r="5" cx="622" cy="436" opacity="0.88"></circle><circle r="5" cx="637" cy="338" opacity="0.49"></circle><circle r="5" cx="731" cy="304" opacity="0.99"></circle></g></svg>