<svg xmlns="http://www.w3.org/2000/svg" version="1.1" xmlns:xlink="http://www.w3.org/1999/xlink" xmlns:svgjs="http://svgjs.dev/svgjs" viewBox="0 0 800 800" opacity="0.79"><g stroke-width="45" stroke="#ff3c2e" fill="none"><circle r="356.5" cx="400" cy="400" fill="none" opacity="0.26" clip-path="url(&quot;#SvgjsClipPath2378&quot;)"></circle><circle r="270" cx="400" cy="400" fill="none" opacity="0.26" clip-path="url(&quot;#SvgjsClipPath2378&quot;)"></circle><circle r="183.5" cx="400" cy="400" fill="none" opacity="0.26" clip-path="url(&quot;#SvgjsClipPath2378&quot;)"></circle><circle r="97" cx="400" cy="400" fill="none" opacity="0.26" clip-path="url(&quot;#SvgjsClipPath2378&quot;)"></circle><circle r="377.5" cx="400" cy="400" fill="none" clip-path="url(&quot;#SvgjsClipPath2379&quot;)"></circle><circle r="291" cx="400" cy="400" fill="none" clip-path="url(&quot;#SvgjsClipPath2379&quot;)"></circle><circle r="204.5" cx="400" cy="400" fill="none" clip-path="url(&quot;#SvgjsClipPath2379&quot;)"></circle><circle r="118" cx="400" cy="400" fill="none" clip-path="url(&quot;#SvgjsClipPath2379&quot;)"></circle></g><defs><clipPath id="SvgjsClipPath2378"><rect width="88.88888888888889" height="800" x="0" y="0"></rect><rect width="88.88888888888889" height="800" x="177.77777777777777" y="0"></rect><rect width="88.88888888888889" height="800" x="355.55555555555554" y="0"></rect><rect width="88.88888888888889" height="800" x="533.3333333333333" y="0"></rect><rect width="88.88888888888889" height="800" x="711.1111111111111" y="0"></rect><rect width="88.88888888888889" height="800" x="888.8888888888889" y="0"></rect><rect width="88.88888888888889" height="800" x="1066.6666666666665" y="0"></rect><rect width="88.88888888888889" height="800" x="1244.4444444444443" y="0"></rect><rect width="88.88888888888889" height="800" x="1422.2222222222222" y="0"></rect><rect width="88.88888888888889" height="800" x="1600" y="0"></rect></clipPath><clipPath id="SvgjsClipPath2379"><rect width="88.88888888888889" height="800" x="88.88888888888889" y="0"></rect><rect width="88.88888888888889" height="800" x="266.66666666666663" y="0"></rect><rect width="88.88888888888889" height="800" x="444.44444444444434" y="0"></rect><rect width="88.88888888888889" height="800" x="622.2222222222222" y="0"></rect><rect width="88.88888888888889" height="800" x="800" y="0"></rect><rect width="88.88888888888889" height="800" x="977.7777777777776" y="0"></rect><rect width="88.88888888888889" height="800" x="1155.5555555555554" y="0"></rect><rect width="88.88888888888889" height="800" x="1333.3333333333333" y="0"></rect><rect width="88.88888888888889" height="800" x="1511.111111111111" y="0"></rect></clipPath></defs></svg>